      ) (`-.                           (` .-') /`           ) (`-.
       ( OO ).                          `.( OO ),'            ( OO ).
      (_/.  _)-.-'),-----. ,--.     ,--./  .--.  .-'),-----.(_/.  _)-.
         `.'  ( OO'  .-.  '|  |.-') |      |  | ( OO'  .-.  '  `.'  /
             /Y   |  | |  ||  | OO )|  |   |  |,/   |  | |  |      /
             _) |  ||  ||  |`-' ||  |.'.|  |_)_) |  ||  |      |
        .'    _) |  | |  (|  '---.'|         |    |  | |  | .'    _)
       /  .'.    `'  '-'  '|      | |   ,'.   |    `'  '-'  '/  .'.  
      '--'   '--'   `-----' `------' '--'   '--'      `-----''--'   '--'


      ▀▀▀▀▀▀▀▀▀▀▀▀▀▀▀▀▀▀▀▀▀▀▀▀▀▀▀▀▀▀▀▀▀▀▀▀▀▀▀▀▀▀▀▀▀▀▀▀▀▀▀▀▀▀▀▀▀▀▀▀▀▀▀▀▀▀▀▀▀▀

                 █░░░░░░░░░░░░░░░░░░░░░░░░░░░░░░░░░░░░█
                ██ Law Abiding Citizen[2010]DvDrip-LW ██
                 █░░░░░░░░░░░░░░░░░░░░░░░░░░░░░░░░░░░░█

File Name    : Law Abiding Citizen[2010]DvDrip-LW
Type         : Movie
Format       : AVI
File Size    : 699 MB
Duration     : 01:57:13
Language     : English
Source       : DvD
Subtitles    : None
Genre        : Crime | Drama | Thriller
IMDB Link    : http://www.imdb.com/title/tt1197624/
IMDB Rating  : 7.3/10
IMDB Votes   : 19,465 Votes
     ▄▄▄▄▄▄▄▄▄▄▄▄▄▄▄▄▄▄▄▄▄▄▄▄▄▄▄▄▄▄▄▄▄▄▄▄▄▄▄▄▄▄▄▄▄▄▄▄▄▄▄▄▄▄▄▄▄▄▄▄▄▄▄▄▄▄▄▄▄▄
 
                        █░░░░░░░░░░░░░░░░░░░░░░░░█
                       ██       Video Info       ██
                        █░░░░░░░░░░░░░░░░░░░░░░░░█

Format                           : MPEG-4 Visual
Format profile                   : Advanced Simple@L5
Format settings, BVOP            : Yes
Format settings, QPel            : No
Format settings, GMC             : No warppoints
Format settings, Matrix          : Default (H.263)
Muxing mode                      : Packed bitstream
Codec ID                         : XVID
Codec ID/Hint                    : XviD
Duration                         : 1h 57mn
Bit rate                         : 714 Kbps
Width                            : 640 pixels
Height                           : 272 pixels
Display aspect ratio             : 2.35:1
Frame rate                       : 23.976 fps
Resolution                       : 8 bits
Colorimetry                      : 4:2:0
Scan type                        : Progressive
Bits/(Pixel*Frame)               : 0.171
Stream size                      : 598 MiB (86%)
Writing library                  : XviD 1.0.3
     ▄▄▄▄▄▄▄▄▄▄▄▄▄▄▄▄▄▄▄▄▄▄▄▄▄▄▄▄▄▄▄▄▄▄▄▄▄▄▄▄▄▄▄▄▄▄▄▄▄▄▄▄▄▄▄▄▄▄▄▄▄▄▄▄▄▄▄▄▄▄

                         █░░░░░░░░░░░░░░░░░░░░░░░░█
                        ██      Sound Info        ██
                         █░░░░░░░░░░░░░░░░░░░░░░░░█

Format                           : MPEG Audio
Format version                   : Version 1
Format profile                   : Layer 3
Mode                             : Joint stereo / MS Stereo
Codec ID                         : 55
Codec ID/Hint                    : MP3
Duration                         : 1h 54mn
Bit rate mode                    : Variable
Bit rate                         : 112 Kbps
Minimum bit rate                 : 112 Kbps
Channel(s)                       : 2 channels
Sampling rate                    : 44.1 KHz
Stream size                      : 91.2 MiB (13%)
Alignment                        : Aligned on interleaves
Interleave, duration             : 27 ms (0.64 video frame)
Interleave, preload duration     : 526 ms
Writing library                  : LAME3.90
    ▄▄▄▄▄▄▄▄▄▄▄▄▄▄▄▄▄▄▄▄▄▄▄▄▄▄▄▄▄▄▄▄▄▄▄▄▄▄▄▄▄▄▄▄▄▄▄▄▄▄▄▄▄▄▄▄▄▄▄▄▄▄▄▄▄▄▄▄▄▄

                          █░░░░░░░░░░░░░░░░░░░░░░░░█
                         ██          Plot          ██
                          █░░░░░░░░░░░░░░░░░░░░░░░░█

Traumatized by the atrocious murders of his wife 
and daughter -- and the flawed justice system that 
set the killers free -- Clyde Shelton (Gerard Butler) 
gives in to his rage and sets out on a course of vengeance. 
He soon takes on not only the prosecutor involved in the 
case, Nick Rice (Jamie Foxx), but also the city of 
Philadelphia. Director F. Gary Gray's bold crime thriller 
co-stars Viola Davis and Michael Gambon.

Starring: Jamie Foxx, Gerard Butler

Director: F. Gary Gray
    ▄▄▄▄▄▄▄▄▄▄▄▄▄▄▄▄▄▄▄▄▄▄▄▄▄▄▄▄▄▄▄▄▄▄▄▄▄▄▄▄▄▄▄▄▄▄▄▄▄▄▄▄▄▄▄▄▄▄▄▄▄▄▄▄▄▄▄▄▄▄

                          █░░░░░░░░░░░░░░░░░░░░░░░░█
                         ██         Shoutz         ██
                          █░░░░░░░░░░░░░░░░░░░░░░░░█


           -/-ExtraTorrent-/-ShipWreckTorrentz-/-

ScreenShots
 
http://leetleech.org/images/21748479663110938386.png
 
http://leetleech.org/images/17369030909507302749.png
 
http://leetleech.org/images/28422400721966612094.png
 
http://leetleech.org/images/10459407521600736232.png
 
http://leetleech.org/images/79733171079801277703.jpg